<svg width="119" height="43" viewBox="0 0 119 43" fill="none" xmlns="http://www.w3.org/2000/svg">
<path d="M118.367 36.5768H0.45752V42.6963H118.367V36.5768Z" fill="#F68C28"/>
<path d="M107.962 8.1377V16.563H108.694L114.937 8.1377H118.601L111.391 16.9473C114.058 17.2725 115.67 19.3714 116.959 22.8598C117.399 24.131 117.985 26.023 118.747 27.5898H115.553C115.113 26.7325 114.527 25.2248 113.999 23.5989C112.856 20.4653 111.332 19.0167 108.519 19.0167H107.932V27.5603H104.943V8.1377H107.962Z" fill="#2B3134"/>
<path d="M78.9747 27.5898L78.7403 25.1361H78.623C77.6851 26.6734 75.9266 28.0333 73.5526 28.0333C70.2114 28.0333 68.4822 25.2544 68.4822 22.446C68.4822 17.7455 72.0285 15.1736 78.4472 15.2031V14.7893C78.4472 13.1929 78.0662 10.2958 74.6956 10.2958C73.1423 10.2958 71.5596 10.8575 70.3872 11.7443L69.7132 9.4089C71.0907 8.37421 73.0544 7.69427 75.1646 7.69427C80.235 7.69427 81.466 11.7443 81.466 15.6466V22.919C81.466 24.604 81.5246 26.2595 81.7298 27.5898H78.9747ZM78.5058 17.6568C75.2232 17.5681 71.501 18.2481 71.501 22.0321C71.501 24.3084 72.7906 25.4022 74.3439 25.4022C76.5128 25.4022 77.861 23.8058 78.3592 22.1503C78.4472 21.7956 78.5351 21.3817 78.5351 21.027V17.6568H78.5058Z" fill="#2B3134"/>
<path d="M64.1452 0.510559V3.43725H54.1802V10.7096C54.9129 10.5914 56.2611 10.5027 57.0231 10.5027C59.2213 10.5027 61.3608 11.0644 62.9728 12.306C64.7313 13.6363 65.9037 15.7648 65.9037 18.928C65.9037 21.4704 65.171 23.3919 63.9986 24.7814C62.1228 26.9394 59.0161 27.7968 55.8508 27.7968C53.7698 27.7968 52.1872 27.6489 51.1907 27.4716V0.510559H64.1452ZM54.1802 24.8996C54.8543 25.0474 55.6456 25.1066 56.6714 25.1066C58.5179 25.1066 60.3936 24.4266 61.5367 23.0076C62.328 22.0321 62.7969 20.7313 62.7969 19.0167C62.7969 16.9177 62.0349 15.5283 60.9212 14.5823C59.7195 13.6067 58.1955 13.2224 56.5542 13.2224C55.8801 13.2224 54.9422 13.3111 54.1802 13.3702V24.8996Z" fill="#2B3134"/>
<path d="M89.2048 8.1377V15.9718H97.0596V8.1377H100.049V27.5898H97.0596V18.7802H89.2048V27.5898H86.2153V8.1377H89.2048Z" fill="#2B3134"/>
<path d="M0.487061 0.865398C2.09904 0.540211 4.35582 0.303711 7.55048 0.303711C10.7745 0.303711 13.0605 1.01321 14.6139 2.46177C16.0793 3.82165 17.0758 6.0684 17.0758 8.72902C17.0758 11.3896 16.3138 13.6364 14.9656 15.1441C13.1778 17.1248 10.54 17.9821 7.46256 17.9821C6.78845 17.9821 6.17297 17.9525 5.67472 17.8638V27.5603H0.487061V0.865398ZM5.64541 13.1634C6.08504 13.2816 6.64191 13.3112 7.40394 13.3112C10.1883 13.3112 11.8882 11.6557 11.8882 8.9064C11.8882 6.42315 10.4227 4.91546 7.81426 4.91546C6.75914 4.91546 6.02642 5.03371 5.64541 5.15196V13.1634Z" fill="#2B3134"/>
<path d="M25.6047 0.51062V10.9166H34.1922V0.51062H39.4091V27.5899H34.1922V16.2674H25.6047V27.5899H20.3584V0.51062H25.6047Z" fill="#2B3134"/>
</svg>
