<svg width="18" height="17" viewBox="0 0 18 17" fill="none" xmlns="http://www.w3.org/2000/svg">
<path d="M0.875 13.4155C0.875 14.9118 2.11419 16.125 3.63278 16.125H14.367C15.8856 16.125 17.1249 14.9118 17.1249 13.4155L17.125 2.97706C17.125 2.60044 16.8145 2.29907 16.4366 2.29907H14.3362V1.55299C14.3362 1.17645 14.0258 0.875 13.6478 0.875C13.2699 0.875 12.9594 1.17643 12.9594 1.55299V2.29907H5.04047V1.55299C5.04047 1.17643 4.73002 0.875 4.35208 0.875C3.97412 0.875 3.66374 1.17645 3.66374 1.55299V2.29907H1.56342C1.56341 2.29907 1.5634 2.29907 1.56339 2.29907C1.18544 2.29902 0.875 2.60041 0.875 2.97706V13.4155ZM2.25179 3.65511H3.66374V4.2905C3.66374 4.6671 3.97411 4.96855 4.35208 4.96855C4.73003 4.96855 5.04047 4.66711 5.04047 4.2905V3.65511H12.9595V4.2905C12.9595 4.66711 13.2699 4.96855 13.6479 4.96855C14.0258 4.96855 14.3362 4.6671 14.3362 4.2905V3.65511H15.7483V5.94902H2.25179V3.65511ZM15.7482 13.4155C15.7482 14.1595 15.1307 14.769 14.367 14.769H3.63278C2.86919 14.769 2.25173 14.1595 2.25173 13.4155V7.30505H15.7482V13.4155Z" fill="#2B3134" stroke="#2B3134" stroke-width="0.25"/>
</svg>
