<?xml version="1.0" encoding="utf-8"?><svg width="450" height="358" viewBox="0 0 450 358" xmlns="http://www.w3.org/2000/svg" xmlns:xlink="http://www.w3.org/1999/xlink"><svg width="21" height="12" fill="none" viewBox="0 0 21 12" id="accordion-arrow-s-g" xmlns="http://www.w3.org/2000/svg"><path opacity=".6" d="M19.81 1.244a1.079 1.079 0 0 0-1.518 0h1.518zm0 0c.42.417.42 1.093 0 1.509l-7.85 7.784a2.036 2.036 0 0 1-2.862 0L1.19 2.697a1.061 1.061 0 0 1-.01-1.499 1.08 1.08 0 0 1 1.53-.011l7.235 7.176a.83.83 0 0 0 1.168 0l7.179-7.119h1.518z" fill="#A1A1A1" stroke="#A1A1A1" stroke-width=".25"/></svg><svg width="21" height="12" fill="none" viewBox="0 0 21 12" id="accordion-arrow-s-o" x="21" y="12" xmlns="http://www.w3.org/2000/svg"><path d="M19.81 1.244a1.079 1.079 0 0 0-1.518 0h1.518zm0 0c.42.417.42 1.093 0 1.509l-7.85 7.784a2.036 2.036 0 0 1-2.862 0L1.19 2.697a1.061 1.061 0 0 1-.01-1.499 1.08 1.08 0 0 1 1.53-.011l7.235 7.176a.83.83 0 0 0 1.168 0l7.179-7.119h1.518z" fill="#F68C28" stroke="#F68C28" stroke-width=".25"/></svg><svg width="12" height="12" viewBox="0 0 451.846 451.847" id="btn-arrow" x="42" y="24" xmlns="http://www.w3.org/2000/svg"><path d="M345.441 248.292L151.154 442.573c-12.359 12.365-32.397 12.365-44.75 0-12.354-12.354-12.354-32.391 0-44.744L278.318 225.92 106.409 54.017c-12.354-12.359-12.354-32.394 0-44.748 12.354-12.359 32.391-12.359 44.75 0l194.287 194.284c6.177 6.18 9.262 14.271 9.262 22.366 0 8.099-3.091 16.196-9.267 22.373z" fill="#FFF"/></svg><svg width="14" height="8" fill="none" viewBox="0 0 14 8" id="btn-arrow-d" x="54" y="36" xmlns="http://www.w3.org/2000/svg"><path opacity=".7" fill-rule="evenodd" clip-rule="evenodd" d="M12.775.705a1.106 1.106 0 0 0-1.51 0L6.697 4.973 2.13.705A1.106 1.106 0 0 0 .62 2.322l4.712 4.402a2 2 0 0 0 2.73 0l4.713-4.402a1.106 1.106 0 0 0 0-1.617z" fill="#A1A1A1"/></svg><svg width="73" height="8" fill="none" viewBox="0 0 73 8" id="btn-arrow-right" x="68" y="44" xmlns="http://www.w3.org/2000/svg"><path d="M72.354 4.354a.5.5 0 0 0 0-.708L69.172.464a.5.5 0 1 0-.707.708L71.293 4l-2.829 2.828a.5.5 0 1 0 .708.708l3.182-3.182zM0 4.5h72v-1H0v1z" fill="#000"/></svg><svg width="14" height="8" fill="none" viewBox="0 0 14 8" id="btn-arrow-s-o" x="141" y="52" xmlns="http://www.w3.org/2000/svg"><path fill-rule="evenodd" clip-rule="evenodd" d="M12.775.705a1.106 1.106 0 0 0-1.51 0L6.697 4.973 2.13.705A1.106 1.106 0 0 0 .62 2.322l4.712 4.402a2 2 0 0 0 2.73 0l4.713-4.402a1.106 1.106 0 0 0 0-1.617z" fill="#F68C28"/></svg><svg viewBox="0 0 350 350" width="12" height="12" id="btn-user" x="155" y="60" xmlns="http://www.w3.org/2000/svg"><g fill="#FFF"><path d="M175 171.173c38.914 0 70.463-38.318 70.463-85.586C245.463 38.318 235.105 0 175 0s-70.465 38.318-70.465 85.587c0 47.268 31.549 85.586 70.465 85.586zM41.909 301.853c-.012-2.882-.024-.812 0 0zm266.176 2.251c.038-.789.013-5.474 0 0z"/><path d="M307.935 298.397c-1.305-82.342-12.059-105.805-94.352-120.657 0 0-11.584 14.761-38.584 14.761s-38.586-14.761-38.586-14.761C55.018 192.43 43.61 215.545 42.11 295.722c-.123 6.547-.18 6.891-.202 6.131.005 1.424.011 4.058.011 8.651 0 0 19.592 39.496 133.08 39.496 113.486 0 133.08-39.496 133.08-39.496 0-2.951.002-5.003.005-6.399-.022.47-.066-.441-.149-5.708z"/></g></svg><svg width="14" height="10" fill="none" viewBox="0 0 14 10" id="checked" x="167" y="72" xmlns="http://www.w3.org/2000/svg"><path fill-rule="evenodd" clip-rule="evenodd" d="M5 10L0 5.192l1.4-1.346L5 7.308 12.6 0 14 1.346 5 10z" fill="#FFB78F"/></svg><svg width="32" height="32" fill="none" viewBox="0 0 32 32" id="danger" x="181" y="82" xmlns="http://www.w3.org/2000/svg"><path d="M15.134 1.5a1 1 0 0 1 1.732 0l12.124 21a1 1 0 0 1-.866 1.5H3.876a1 1 0 0 1-.866-1.5l12.124-21z" fill="#EB5757"/><path d="M16.916 16.588H15.45l-.114-9.185h1.705l-.123 9.185zm-1.643 2.795c0-.264.08-.484.237-.66.164-.181.405-.272.721-.272.316 0 .557.09.72.272a.929.929 0 0 1 .247.66.929.929 0 0 1-.246.659c-.164.17-.405.255-.721.255-.316 0-.557-.085-.72-.255a.949.949 0 0 1-.238-.66z" fill="#fff"/></svg><svg width="18" height="17" fill="none" viewBox="0 0 18 17" id="datapicker-s-b" x="213" y="114" xmlns="http://www.w3.org/2000/svg"><path d="M.875 13.415c0 1.497 1.24 2.71 2.758 2.71h10.734c1.519 0 2.758-1.213 2.758-2.71V2.977a.683.683 0 0 0-.688-.678h-2.1v-.746a.683.683 0 0 0-.69-.678.683.683 0 0 0-.688.678v.746H5.04v-.746a.683.683 0 0 0-.688-.678.683.683 0 0 0-.688.678v.746h-2.1a.683.683 0 0 0-.689.678v10.438zm1.377-9.76h1.412v.635c0 .377.31.679.688.679a.683.683 0 0 0 .688-.679v-.635h7.92v.635c0 .377.31.679.688.679a.683.683 0 0 0 .688-.679v-.635h1.412V5.95H2.252V3.655zm13.496 9.76c0 .745-.617 1.354-1.381 1.354H3.633c-.764 0-1.381-.61-1.381-1.354v-6.11h13.496v6.11z" fill="#2B3134" stroke="#2B3134" stroke-width=".25"/></svg><svg width="18" height="17" fill="none" viewBox="0 0 18 17" id="datapicker-s-g" x="231" y="131" xmlns="http://www.w3.org/2000/svg"><path d="M.875 13.415c0 1.497 1.24 2.71 2.758 2.71h10.734c1.519 0 2.758-1.213 2.758-2.71V2.977a.683.683 0 0 0-.688-.678h-2.1v-.746a.683.683 0 0 0-.69-.678.683.683 0 0 0-.688.678v.746H5.04v-.746a.683.683 0 0 0-.688-.678.683.683 0 0 0-.688.678v.746h-2.1a.683.683 0 0 0-.689.678v10.438zm1.377-9.76h1.412v.635c0 .377.31.679.688.679a.683.683 0 0 0 .688-.679v-.635h7.92v.635c0 .377.31.679.688.679a.683.683 0 0 0 .688-.679v-.635h1.412V5.95H2.252V3.655zm13.496 9.76c0 .745-.617 1.354-1.381 1.354H3.633c-.764 0-1.381-.61-1.381-1.354v-6.11h13.496v6.11z" fill="#A1A1A1" stroke="#A1A1A1" stroke-width=".25"/></svg><svg width="14" height="14" fill="none" viewBox="0 0 14 14" id="error-s" x="249" y="148" xmlns="http://www.w3.org/2000/svg"><circle cx="7" cy="7" r="7" fill="#E0283E"/><path fill-rule="evenodd" clip-rule="evenodd" d="M6.125 3.74c0-.375.392-.678.875-.678s.875.303.875.677v3.882c0 .374-.392.678-.875.678s-.875-.304-.875-.678V3.74zm0 6.116c0-.374.392-.678.875-.678s.875.304.875.678v.404c0 .374-.392.677-.875.677s-.875-.303-.875-.677v-.404z" fill="#fff"/></svg><svg width="128" height="128" fill="none" viewBox="0 0 128 128" id="logo" x="263" y="162" xmlns="http://www.w3.org/2000/svg"><path d="M100.521 80.042a9.544 9.544 0 0 0-1.29-4.404c-1.207-2.118-2.438-4.224-3.658-6.336l2.998-1.376c3.763-1.726 4.246-6.88.869-9.28-1.418-1.006-2.043-1.948-3.136-3.278-.466-.566-.98-1.104-1.32-1.76-1.83-3.512 1.826-6.06 1.885-9.347a5.454 5.454 0 0 0-1.451-3.77c-.221-.238-3.244-2.147-3.301-1.673l.203-1.618c.509-4.109-3.622-7.229-7.435-5.614-2.821 1.193-5.645 3.272-8.668 1.76-2.753-1.373-4.012-4.528-5.43-6.984a5.426 5.426 0 0 0-6.278-2.444c-2.776.87-3.722 3.861-6.931 4.19-2.853.29-6.4-3.708-8.649-5.302-3.377-2.4-8.081-.236-8.467 3.885-.32 3.336 1.016 10.858-3.73 10.741-4.14-.102-6.838 4.32-4.857 7.95.925 1.698 4.149 5.44 2.45 7.578-1.045 1.331-4.844 2.08-6.485 2.77-3.813 1.614-4.45 6.75-1.144 9.246 2.867 2.165 6.72 3.714 6.427 7.824a7.957 7.957 0 0 1-.413 1.787A34.996 34.996 0 0 1 30.502 80c-1.993 3.454.335 7.738 4.208 8.048l-.029.309c-.385 4.123 3.84 7.117 7.599 5.39l6.417-2.944c1.35-.619 3.224-1.936 4.655-1.68 3.04.546 3.928 4.123 5.934 5.92a5.4 5.4 0 0 0 3.594 1.36c.403 0 3.854-1.197 3.601-1.389l9.647 7.284c3.304 2.494 8.07.48 8.58-3.632.247-2.002-.244-3.874 1.258-5.312 1.412-1.35 3.381-2.08 5.207-2.663 2.892-.925 6.686-1.469 8.008-4.542.889-2.063 1.424-4.095 1.34-6.107z" fill="url(#ma)"/><path d="M26.12 45.306c-.38-.456-.309-1.159-.685-1.647a2.385 2.385 0 1 0-3.222 3.437c.678.46 1.259.34 1.734 1.074.475.732 1.013 1.37 1.986 1.37a2.037 2.037 0 0 0 2.037-2.038c0-1.196-.775-1.462-1.6-1.987a1.027 1.027 0 0 1-.25-.21zm84.586-18.162a2.79 2.79 0 0 1 .565-1.06c.32-.362.832-.48 1.311-.558 1.504-.227 2.953.412 3.108-1.564a3.492 3.492 0 0 0-.828-2.552 3.492 3.492 0 0 0-2.389-1.218c-3.096-.245-1.551 2.178-3.13 3.598-1.579 1.421-3.662-.09-3.897 2.88a2.996 2.996 0 0 0 .706 2.178 3.002 3.002 0 0 0 2.041 1.04c2.269.174 2.088-1.374 2.513-2.744z" fill="#EB3B27"/><path d="M28.82 53.264a1.44 1.44 0 1 0 0-2.88 1.44 1.44 0 0 0 0 2.88zm75.583-17.861a.88.88 0 1 0-1.641-.638.88.88 0 0 0 1.641.638zm5.656-.418a1.635 1.635 0 1 0-3.046-1.188 1.635 1.635 0 0 0 3.046 1.188zM47.22 107.824a4.48 4.48 0 1 0-.001-8.96 4.48 4.48 0 0 0 0 8.96zm-9.404-5.894c.109-.234.533-.301.688-.48a1.124 1.124 0 0 0-1.704-1.463c-.224.259-.21.84-.667.751-.458-.09-.827-.224-1.293-.204a3.281 3.281 0 0 0-2.929 4.432 3.274 3.274 0 0 0 3.228 2.118 3.275 3.275 0 0 0 3.006-2.422 3.278 3.278 0 0 0-.105-2.027c-.064-.168-.258-.401-.264-.579a.273.273 0 0 1 .04-.126z" fill="#FE7223"/><path d="M51.3 94.224a.96.96 0 1 0 0-1.92.96.96 0 0 0 0 1.92zm1.519 8.16a.56.56 0 1 0 0-1.12.56.56 0 0 0 0 1.12zm5.761-2.72a1.36 1.36 0 1 0 0-2.72 1.36 1.36 0 0 0 0 2.72z" fill="#520900"/><path d="M64 84.88c12.327 0 22.32-9.993 22.32-22.32S76.327 40.24 64 40.24s-22.32 9.993-22.32 22.32S51.673 84.88 64 84.88z" fill="#fff"/><path d="M59.061 69.703H56.77l-.392-2.605h-2.786l-.392 2.605h-2.084l2.31-14.363h3.327l2.308 14.363zm-5.174-4.554h2.188l-1.094-7.263-1.094 7.263zm10.976 4.554c-.123-.37-.207-.595-.207-1.765V65.68c0-1.334-.453-1.827-1.478-1.827h-.784v5.848h-2.271V55.34h3.427c2.353 0 3.365 1.087 3.365 3.303v1.129c0 1.469-.475 2.448-1.478 2.913 1.136.473 1.508 1.56 1.508 3.059v2.203c0 .698.02 1.21.246 1.744l-2.328.012zm-2.476-12.311v4.407h.887c.847 0 1.362-.37 1.362-1.518v-1.415c0-1.026-.35-1.47-1.155-1.47l-1.094-.004zm5.366-2.052h7.02v2.052h-2.376v12.311h-2.271V57.392H67.75l.002-2.052z" fill="#333"/><path d="M63.84 87.04c-13.587 0-24.64-11.053-24.64-24.64s11.053-24.64 24.64-24.64S88.48 48.813 88.48 62.4 77.427 87.04 63.84 87.04zm0-49.12c-13.498 0-24.48 10.982-24.48 24.48 0 13.498 10.982 24.48 24.48 24.48 13.498 0 24.48-10.982 24.48-24.48 0-13.498-10.982-24.48-24.48-24.48z" fill="#fff"/><defs><linearGradient id="ma" x1="30.733" y1="85.75" x2="95.302" y2="38.838" gradientUnits="userSpaceOnUse"><stop stop-color="#FE7223"/><stop offset=".99" stop-color="#EA3C28"/></linearGradient></defs></svg><svg width="14" height="14" fill="none" viewBox="0 0 14 14" id="upload-close-s-g" x="391" y="290" xmlns="http://www.w3.org/2000/svg"><rect x=".209" y="12.812" width="17.75" height="1.475" rx=".738" transform="rotate(-45 .21 12.812)" fill="#A1A1A1" stroke="#A1A1A1" stroke-width=".25"/><rect x="12.637" y="13.864" width="17.75" height="1.475" rx=".738" transform="rotate(-135 12.637 13.864)" fill="#A1A1A1" stroke="#A1A1A1" stroke-width=".25"/></svg><svg width="16" height="19" fill="none" viewBox="0 0 16 19" id="upload-icon-s-b" x="405" y="304" xmlns="http://www.w3.org/2000/svg"><path d="M15.996 5.168a5.398 5.398 0 0 0-1.693-3.738A5.302 5.302 0 0 0 12.648.368a5.14 5.14 0 0 0-2.13-.364 5.198 5.198 0 0 0-3.664 1.73L.927 8.26c-.19.21-.18.536.025.731l.411.395c.206.198.53.188.723-.024l5.931-6.53c.677-.75 1.669-1.18 2.72-1.18.946 0 1.832.344 2.492.967a3.77 3.77 0 0 1 1.184 2.616 3.77 3.77 0 0 1-.968 2.694l-8.056 8.776a2.18 2.18 0 0 1-1.618.7c-.562 0-1.09-.204-1.483-.576a2.257 2.257 0 0 1-.705-1.555 2.235 2.235 0 0 1 .573-1.6s7.497-8.165 7.51-8.175c.656-.695 1.685.316 1.028 1.01-1.114 1.179-3.977 4.333-5.378 5.882-.19.21-.18.536.024.731l.412.395c.206.198.53.188.723-.024l5.397-5.938a2.368 2.368 0 0 0-.13-3.295 2.258 2.258 0 0 0-2.45-.43 2.203 2.203 0 0 0-.77.554L.999 12.572c-1.412 1.56-1.314 4.004.216 5.447.673.634 1.58.98 2.553.98 1.082 0 2.095-.434 2.78-1.19l8.055-8.776a5.422 5.422 0 0 0 1.394-3.865z" fill="#2B3134"/></svg><svg width="16" height="19" fill="none" viewBox="0 0 16 19" id="upload-icon-s-g" x="421" y="323" xmlns="http://www.w3.org/2000/svg"><path d="M15.996 5.168a5.398 5.398 0 0 0-1.693-3.738A5.302 5.302 0 0 0 12.648.368a5.14 5.14 0 0 0-2.13-.364 5.198 5.198 0 0 0-3.664 1.73L.927 8.26c-.19.21-.18.536.025.731l.411.395c.206.198.53.188.723-.024l5.931-6.53c.677-.75 1.669-1.18 2.72-1.18.946 0 1.832.344 2.492.967a3.77 3.77 0 0 1 1.184 2.616 3.77 3.77 0 0 1-.968 2.694l-8.056 8.776a2.18 2.18 0 0 1-1.618.7c-.562 0-1.09-.204-1.483-.576a2.257 2.257 0 0 1-.705-1.555 2.235 2.235 0 0 1 .573-1.6s7.497-8.165 7.51-8.175c.656-.695 1.685.316 1.028 1.01-1.114 1.179-3.977 4.333-5.378 5.882-.19.21-.18.536.024.731l.412.395c.206.198.53.188.723-.024l5.397-5.938a2.368 2.368 0 0 0-.13-3.295 2.258 2.258 0 0 0-2.45-.43 2.203 2.203 0 0 0-.77.554L.999 12.572c-1.412 1.56-1.314 4.004.216 5.447.673.634 1.58.98 2.553.98 1.082 0 2.095-.434 2.78-1.19l8.055-8.776a5.422 5.422 0 0 0 1.394-3.865z" fill="#A1A1A1"/></svg><svg width="13" height="16" fill="none" viewBox="0 0 13 16" id="upload-loaded-s-o" x="437" y="342" xmlns="http://www.w3.org/2000/svg"><path d="M12.308 3.958L9.14.708C8.801.361 8.354.135 7.8.031v5.302h5.17c-.102-.57-.323-1.028-.66-1.375z" fill="#F68C28"/><path d="M7.475 6.667a.928.928 0 0 1-.69-.292.977.977 0 0 1-.285-.708V0H.975a.928.928 0 0 0-.69.292A.977.977 0 0 0 0 1v14c0 .278.095.514.284.708.19.195.42.292.691.292h11.05a.924.924 0 0 0 .69-.292A.977.977 0 0 0 13 15V6.667H7.475z" fill="#F68C28"/></svg></svg>